inDegrees=yes
name=ik_lifting_orientations
DataType=double
version=3
OpenSimVersion=4.5-2024-01-10-34fd6af
endheader
time	pelvis_tilt	pelvis_list	pelvis_rotation	pelvis_tx	pelvis_ty	pelvis_tz	hip_flexion_r	hip_adduction_r	hip_rotation_r	knee_angle_r	knee_angle_r_beta	ankle_angle_r	subtalar_angle_r	mtp_angle_r	hip_flexion_l	hip_adduction_l	hip_rotation_l	knee_angle_l	knee_angle_l_beta	ankle_angle_l	subtalar_angle_l	mtp_angle_l	lumbar_extension	lumbar_bending	lumbar_rotation	arm_flex_r	arm_add_r	arm_rot_r	elbow_flex_r	pro_sup_r	wrist_flex_r	wrist_dev_r	arm_flex_l	arm_add_l	arm_rot_l	elbow_flex_l	pro_sup_l	wrist_flex_l	wrist_dev_l
0.68	0.171534721254715	2.431800154111995	-90.94653222110603	0	0.9399999998679526	0	44.9555348831687	-10.06036664852993	0	59.96976565147322	1.04666986226761	-5.010385229019372	0	0	44.9555348831687	-10.06036664852993	0	59.96976565147322	1.04666986226761	-5.010385229019372	0	0	0.1263241469027034	0.0676034927607195	-1.784616307756057	2.410781883977403	-0.7491566870740842	4.935898291660997	0.05843376410039274	1.539846429335387	0	0	0	-11.61543017603378	0	88.4900648034123	1.539846429335387	0	0
0.6899999999999999	0.1848941140086207	2.759959599563805	-90.55760936715063	0	0.9399999998679526	0	44.9555475339177	-10.06030835116827	0	59.9697725933958	1.046669983427015	-5.010372218305568	0	0	44.9555475339177	-10.06030835116827	0	59.9697725933958	1.046669983427015	-5.010372218305568	0	0	1.263936811026016	-0.201560529228474	-2.080448813811576	1.622420632136187	-0.5308705710572121	4.746813524752032	0.05768575655093493	1.539538783497226	0	0	0	-11.61593187591807	0	88.49036643558955	1.539538783497226	0	0
0.7	0.219329503899294	3.06164562135187	-90.12889777710009	0	0.9399999998679526	0	44.95555940884567	-10.06025345168872	0	59.96977908976365	1.046670096810024	-5.010359960313243	0	0	44.95555940884567	-10.06025345168872	0	59.96977908976365	1.046670096810024	-5.010359960313243	0	0	2.515678346586634	-0.5469998303461961	-2.384749390983062	0.7138506339135398	-0.2992152633677365	4.475555368707303	0.05592765204815177	1.539250328243668	0	0	0	-11.61640182575454	0	88.49064925229129	1.539250328243668	0	0
0.71	0.2653173028836663	3.379199053580354	-89.69130583927273	0	0.9399999998679526	0	44.95557153329209	-10.06019628385075	0	59.96978561347218	1.046670210670217	-5.010347151198215	0	0	44.95557153329209	-10.06019628385075	0	59.96978561347218	1.046670210670217	-5.010347151198215	0	0	4.034086709809196	-0.9764801949297421	-5.011820530003376	-0.5062540270837058	-0.003721766555557845	6.554656872448354	0.05543972387509925	1.538957671401575	0	0	0	-11.61687604865322	0	88.49093618835803	1.538957671401575	0	0
0.72	0.290944718153317	3.754629932232535	-89.13092031178387	0	0.9399999998679526	0	44.95558313454675	-10.06014165549322	0	59.96979185941524	1.046670319682488	-5.010334916066014	0	0	44.95558313454675	-10.06014165549322	0	59.96979185941524	1.046670319682488	-5.010334916066014	0	0	5.585001787894238	-1.462214874798585	-7.769877789332748	-1.759207826886066	0.1617976386979444	8.633842897398049	0.05571066462350853	1.538677562155031	0	0	0	-11.61733004211323	0	88.49121082211072	1.538677562155031	0	0
0.73	0.2907291719650179	4.1733674126919	-88.37267625273874	0	0.9399999998679526	0	44.95559530844606	-10.06008449944209	0	59.96979842674824	1.046670434304072	-5.010322123614388	0	0	44.95559530844606	-10.06008449944209	0	59.96979842674824	1.046670434304072	-5.010322123614388	0	0	6.794545675567464	-1.806058365699148	-6.947769001950934	-2.640681013235277	0.3372632168269188	6.99508584418665	0.05565305260528945	1.538383384968383	0	0	0	-11.61780716288503	0	88.49149924882005	1.538383384968383	0	0
0.74	0.3186878309665546	4.673585187221911	-87.44815127213528	0	0.9399999998679526	0	44.95561088633455	-10.06001112746713	0	59.96980680489158	1.046670580530259	-5.010305694267934	0	0	44.95561088633455	-10.06001112746713	0	59.96980680489158	1.046670580530259	-5.010305694267934	0	0	8.172756962387353	-2.240960172176152	-6.144426713605668	-3.630234693101521	0.5122666398348039	5.311859975839612	0.05603289847755808	1.5380073686949	0	0	0	-11.61841643337666	0	88.49186791483281	1.5380073686949	0	0
0.75	0.3439201876762977	5.242634897891002	-86.75882019410693	0	0.9399999998679526	0	44.95562725290387	-10.05993399179919	0	59.96981559696285	1.046670733980851	-5.010288423720399	0	0	44.95562725290387	-10.05993399179919	0	59.96981559696285	1.046670733980851	-5.010288423720399	0	0	9.73868245004873	-2.686147876811138	-4.964385749821754	-4.686938266295526	0.7677523694519439	3.614288116357411	0.0560235450092059	1.537612461154362	0	0	0	-11.61905609545632	0	88.4922551028247	1.537612461154362	0	0
0.76	0.3369823326078561	5.807044796717949	-85.94787910043019	0	0.9399999998679526	0	44.95564561438155	-10.05984740533017	0	59.96982544999821	1.046670905948759	-5.010269039086117	0	0	44.95564561438155	-10.05984740533017	0	59.96982544999821	1.046670905948759	-5.010269039086117	0	0	11.39858651287562	-3.216986045794728	-4.146150783254019	-5.926309757565932	1.139500884713227	2.363954192590412	0.05824160796534686	1.537169567442723	0	0	0	-11.61977326214369	0	88.4926893389602	1.537169567442723	0	0
0.77	0.3221745500652943	6.424423676511759	-84.87408055096404	0	0.9399999998679526	0	44.95566292804188	-10.05976620856122	0	59.96983477547484	1.04667106870903	-5.010250884461376	0	0	44.95566292804188	-10.05976620856122	0	59.96983477547484	1.04667106870903	-5.010250884461376	0	0	12.97385572122764	-3.770685561133631	-4.828985297311169	-7.097388138478009	1.323266665358902	2.368118608504389	0.05936935200171408	1.536751310209193	0	0	0	-11.62045139481705	0	88.49309942023828	1.536751310209193	0	0
0.78	0.2947714015888924	7.297532016738374	-83.37988718707632	0	0.9399999998679526	0	44.95567603465424	-10.05970555629748	0	59.96984190498239	1.046671193142411	-5.010237361418881	0	0	44.95567603465424	-10.05970555629748	0	59.96984190498239	1.046671193142411	-5.010237361418881	0	0	14.70734961272099	-4.461549623283734	-6.462438771670051	-8.322259132750924	1.371850073324528	2.862749745448535	0.06397896680816569	1.536433446946817	0	0	0	-11.62096844324367	0	88.49341107007632	1.536433446946817	0	0
0.79	0.2506772012128492	8.173145142650027	-81.88504473895365	0	0.9399999998679526	0	44.9556897550008	-10.05964186129155	0	59.9698493462524	1.046671323017073	-5.010223153285186	0	0	44.9556897550008	-10.05964186129155	0	59.9698493462524	1.046671323017073	-5.010223153285186	0	0	16.19170885632331	-5.135520468574255	-7.898100583248349	-9.25887818727635	1.363269477109904	3.081489761473851	0.06638549985921176	1.536101060812316	0	0	0	-11.6215086100985	0	88.49373695888335	1.536101060812316	0	0
0.8	0.1410237233522422	9.115730744809756	-80.19179455220522	0	0.9399999998679526	0	44.95570059584984	-10.05959187836609	0	59.96985525461132	1.04667142613739	-5.010212020581379	0	0	44.95570059584984	-10.05959187836609	0	59.96985525461132	1.04667142613739	-5.010212020581379	0	0	17.70620355924296	-5.890880946629161	-9.502998986675902	-10.22782720122125	1.410546774991337	3.259914747166927	0.06771548289168444	1.535837917866949	0	0	0	-11.62193694580103	0	88.49399495806058	1.535837917866949	0	0
0.8100000000000001	0.04081476780167288	10.08317174739462	-78.73676059287997	0	0.9399999998679526	0	44.95571200407776	-10.05953987813665	0	59.96986152678384	1.046671535607452	-5.01020046510321	0	0	44.95571200407776	-10.05953987813665	0	59.96986152678384	1.046671535607452	-5.01020046510321	0	0	19.41815258540286	-6.751712352252657	-10.83584487069772	-11.32228804527245	1.519859286283937	3.281792981341956	0.06498117163844569	1.535560047838342	0	0	0	-11.62239056445118	0	88.49426739649272	1.535560047838342	0	0
0.82	-0.09341509093911132	11.05184033190831	-77.29258854322008	0	0.9399999998679526	0	44.95572277198334	-10.05949110485137	0	59.96986747391635	1.046671639404495	-5.010189641172268	0	0	44.95572277198334	-10.05949110485137	0	59.96986747391635	1.046671639404495	-5.010189641172268	0	0	21.08964651361459	-7.613282899339852	-12.17806141148112	-12.37322968147332	1.510209064966068	3.266674716997049	0.06195974262202558	1.535297294985461	0	0	0	-11.62282015634441	0	88.49452501327252	1.535297294985461	0	0
0.83	-0.2149848330147502	12.24272914637807	-75.96811732654834	0	0.9399999998679526	0	44.95573409996329	-10.05943947397043	0	59.96987369658671	1.046671748010581	-5.01017817134104	0	0	44.95573409996329	-10.05943947397043	0	59.96987369658671	1.046671748010581	-5.01017817134104	0	0	22.9668130503403	-8.57508185482973	-13.35856278778963	-13.42193433498452	1.598458284516108	3.387197431457822	0.05876527857699794	1.535021440426462	0	0	0	-11.62327038307229	0	88.49479547562949	1.535021440426462	0	0
0.84	-0.3916430924030025	13.47248959691451	-74.63965938569655	0	0.9399999998679526	0	44.95574738644865	-10.05937822974852	0	59.96988092721222	1.046671874208803	-5.010164538346968	0	0	44.95574738644865	-10.05937822974852	0	59.96988092721222	1.046671874208803	-5.010164538346968	0	0	24.76355699611999	-9.463688318083797	-14.46329119530647	-14.25969644071538	1.618287662501755	3.598142091865852	0.05596509493427332	1.534699045879411	0	0	0	-11.62379497811669	0	88.49511156818798	1.534699045879411	0	0
0.85	-0.6031662956312281	14.77895085938342	-73.5573254655239	0	0.9399999998679526	0	44.95576134556968	-10.05931372232351	0	59.9698885048062	1.046672006462767	-5.010150174383696	0	0	44.95576134556968	-10.05931372232351	0	59.9698885048062	1.046672006462767	-5.010150174383696	0	0	26.48273211848619	-10.21963981423066	-15.2512682890277	-14.93231749127622	1.572992878504151	3.615781510080581	0.05510068836776787	1.534360637246253	0	0	0	-11.62434519732179	0	88.49544336178329	1.534360637246253	0	0
0.86	-0.8758213759013029	16.02223431217513	-73.70001217568917	0	0.9399999998679526	0	44.95577429218978	-10.05925358280275	0	59.96989550131613	1.046672128574902	-5.010136771264118	0	0	44.95577429218978	-10.05925358280275	0	59.96989550131613	1.046672128574902	-5.010136771264118	0	0	28.41152217863946	-10.40673720784057	-14.87260903861604	-15.74657121848141	1.464477014713274	3.39364919245097	0.0577371013142155	1.534047301513561	0	0	0	-11.62485392100407	0	88.4957505725645	1.534047301513561	0	0
0.87	-1.154335240456131	17.26389216462725	-73.72616348083157	0	0.9399999998679526	0	44.95578898279311	-10.05918554331041	0	59.9699034537914	1.046672267371779	-5.01012161933469	0	0	44.95578898279311	-10.05918554331041	0	59.9699034537914	1.046672267371779	-5.01012161933469	0	0	30.26852812855439	-10.59433433544547	-14.52914970580208	-16.4008851655138	1.456581626739077	3.177855793821359	0.05916676338969261	1.53369149655157	0	0	0	-11.62543193873899	0	88.49609942241852	1.53369149655157	0	0
